<svg width="300" height="300" viewBox="0 0 300 300" fill="none" xmlns="http://www.w3.org/2000/svg">
	<defs>
		<mask id="nuxt-mask-1">
			<path d="M139.856 40.0181L159.009 72.3061L159.43 73L149.969 88.625L149.625 88.061L130.933 56.5135L93.4715 119.608L118.462 119.614C126.897 119.614 132.328 116.819 137.11 109.147L146 111L150.898 117.5C143.698 129.324 133.235 135.385 119.046 135.385H83.2361C81.4241 135.385 79.644 134.921 78.0748 134.04C76.5057 133.159 75.2028 131.892 74.2971 130.365C73.3915 128.839 72.9152 127.108 72.916 125.346C72.9168 123.584 73.3947 121.853 74.3016 120.327L121.976 40.0181C122.882 38.4923 124.186 37.2254 125.755 36.3445C127.324 35.4637 129.104 35 130.916 35C132.728 35 134.508 35.4637 136.077 36.3445C137.647 37.2254 138.95 38.4923 139.856 40.0181Z" fill="#FFF"/>
		</mask>
		<mask id="nuxt-mask-2">
			<path d="M216.056 135.385H159.008L168.376 119.63H205.838L177.739 72.3058L168.376 88.0607L150.897 117.5L137.109 109.147L149.624 88.0607L159.008 72.3058L168.804 55.7941C169.71 54.2683 171.013 53.0012 172.581 52.1202C174.15 51.2392 175.93 50.7754 177.742 50.7754C179.553 50.7754 181.333 51.2392 182.902 52.1202C184.471 53.0012 185.774 54.2683 186.679 55.7941L224.991 120.327C225.898 121.853 226.376 123.584 226.377 125.346C226.377 127.108 225.901 128.839 224.995 130.365C224.09 131.892 222.787 133.159 221.218 134.04C219.648 134.921 217.868 135.385 216.056 135.385Z" fill="#FFF"/>
		</mask>
		<clipPath id="vuetify-clip">
			<rect x="76" y="272" width="148" height="127" fill="#FFF">
				<animate attributeName="y" values="272;144" dur="0.5s" fill="freeze" />
			</rect>
		</clipPath>
	</defs>
	<g clip-path="url(#vuetify-clip)">
		<path d="M151.552 172.464L122.338 222.78L150 270.442L186.638 207.352L223.259 144.261H167.919L151.552 172.464Z" fill="#1697F6"/>
		<path d="M113.379 207.352L115.297 210.669L142.626 163.588L153.854 144.261H150H76.7407L113.379 207.352Z" fill="#AEDDFF"/>
		<path d="M167.919 144.261C181.766 189.568 150 270.442 150 270.442L122.338 222.78L167.919 144.261Z" fill="#1867C0"/>
		<path d="M153.854 144.261C95.5105 144.261 115.297 210.669 115.297 210.669L153.854 144.261Z" fill="#7BC6FF"/>
	</g>
	<path d="M170.5 107L130.5 41L79.5 128H126.5L141 117.5L178 58L219.5 128H157" stroke="#00DC82" stroke-width="20" stroke-dasharray="480" stroke-dashoffset="480" mask="url(#nuxt-mask-1)">
		<animate attributeName="stroke-dashoffset" values="480;0" begin="0.5s" dur="1.2s" fill="freeze" />
	</path>
	<path d="M169 -21L130.5 41L79.5 128H126.5L141 117.5L178 58L219.5 128H157" stroke="#00DC82" stroke-width="20" stroke-dasharray="480" stroke-dashoffset="480" mask="url(#nuxt-mask-2)">
		<animate attributeName="stroke-dashoffset" values="480;0" begin="0.5s" dur="1.2s" fill="freeze" />
	</path>
</svg>
