<svg width="155" height="155" viewBox="0 0 155 155" fill="none" xmlns="http://www.w3.org/2000/svg">
<path d="M79.3351 47.2226L54.1978 90.5874L78.0001 131.664L109.526 77.2906L141.037 22.9167H93.4184L79.3351 47.2226Z" fill="#1697F6"/>
<path d="M46.4887 77.2906L48.1397 80.15L71.6545 39.5734L81.3163 22.9167H78.0001H14.963L46.4887 77.2906Z" fill="#AEDDFF"/>
<path d="M93.4184 22.9167C105.334 61.9636 78.0001 131.664 78.0001 131.664L54.1978 90.5874L93.4184 22.9167Z" fill="#1867C0"/>
<path d="M81.3164 22.9167C31.1137 22.9167 48.1397 80.15 48.1397 80.15L81.3164 22.9167Z" fill="#7BC6FF"/>
<path d="M110.011 132.341H135.861C136.682 132.341 137.489 132.132 138.2 131.734C138.911 131.336 139.501 130.763 139.912 130.074C140.322 129.385 140.538 128.603 140.538 127.807C140.537 127.011 140.321 126.229 139.91 125.54L122.55 96.3923C122.139 95.7031 121.549 95.1308 120.838 94.7329C120.127 94.335 119.321 94.1255 118.5 94.1255C117.679 94.1255 116.873 94.335 116.162 94.7329C115.451 95.1308 114.861 95.7031 114.45 96.3923L110.011 103.85L101.332 89.2665C100.922 88.5774 100.331 88.0051 99.6202 87.6073C98.909 87.2094 98.1024 87 97.2815 87C96.4605 87 95.6539 87.2094 94.9427 87.6073C94.2317 88.0051 93.6412 88.5774 93.2305 89.2665L71.6279 125.54C71.2169 126.229 71.0004 127.011 71 127.807C70.9996 128.603 71.2155 129.385 71.6259 130.074C72.0362 130.763 72.6266 131.336 73.3376 131.734C74.0487 132.132 74.8553 132.341 75.6763 132.341H91.9028C98.332 132.341 103.073 129.604 106.336 124.263L114.256 110.966L118.499 103.85L131.231 125.225H114.256L110.011 132.341ZM91.6383 125.218L80.3143 125.215L97.289 96.7171L105.759 110.966L100.088 120.49C97.9214 123.955 95.4601 125.218 91.6383 125.218Z" fill="#00DC82"/>
</svg>
