<svg width="316" height="300" viewBox="0 0 316 300" fill="none" xmlns="http://www.w3.org/2000/svg">
<path d="M159.552 173.869L130.338 224.185L158 271.847L194.638 208.757L231.259 145.667H175.919L159.552 173.869Z" fill="#1697F6"/>
<path d="M121.379 208.757L123.297 212.075L150.626 164.994L161.854 145.667H158H84.7407L121.379 208.757Z" fill="#AEDDFF"/>
<path d="M175.919 145.667C189.766 190.973 158 271.847 158 271.847L130.338 224.185L175.919 145.667Z" fill="#1867C0"/>
<path d="M161.854 145.667C103.51 145.667 123.297 212.075 123.297 212.075L161.854 145.667Z" fill="#7BC6FF"/>
<path d="M168.016 133.846H225.064C226.876 133.846 228.656 133.383 230.226 132.502C231.795 131.62 233.098 130.353 234.003 128.827C234.909 127.301 235.385 125.569 235.385 123.807C235.384 122.045 234.906 120.314 233.999 118.789L195.687 54.256C194.782 52.7301 193.479 51.463 191.91 50.582C190.341 49.701 188.561 49.2372 186.75 49.2372C184.938 49.2372 183.158 49.701 181.589 50.582C180.021 51.463 178.718 52.7301 177.812 54.256L168.016 70.7676L148.863 38.4796C147.957 36.9539 146.654 35.6869 145.084 34.8061C143.515 33.9253 141.735 33.4615 139.923 33.4615C138.111 33.4615 136.331 33.9253 134.762 34.8061C133.193 35.6869 131.889 36.9539 130.983 38.4796L83.3088 118.789C82.4018 120.314 81.9239 122.045 81.9231 123.807C81.9223 125.569 82.3987 127.301 83.3043 128.827C84.2099 130.353 85.5128 131.62 87.0819 132.502C88.6511 133.383 90.4312 133.846 92.2432 133.846H128.053C142.242 133.846 152.705 127.785 159.905 115.961L177.384 86.5225L186.747 70.7676L214.846 118.092H177.384L168.016 133.846ZM127.469 118.075L102.479 118.07L139.94 54.9751L158.632 86.5225L146.117 107.608C141.335 115.28 135.904 118.075 127.469 118.075Z" fill="#00DC82"/>
</svg>
