<svg width="300" height="300" viewBox="0 0 300 300" fill="none" xmlns="http://www.w3.org/2000/svg">
<path d="M151.552 172.464L122.338 222.78L150 270.442L186.638 207.352L223.259 144.261H167.919L151.552 172.464Z" fill="#1697F6"/>
<path d="M113.379 207.352L115.297 210.669L142.626 163.588L153.854 144.261H150H76.7407L113.379 207.352Z" fill="#AEDDFF"/>
<path d="M167.919 144.261C181.766 189.568 150 270.442 150 270.442L122.338 222.78L167.919 144.261Z" fill="#1867C0"/>
<path d="M153.854 144.261C95.5105 144.261 115.297 210.669 115.297 210.669L153.854 144.261Z" fill="#7BC6FF"/>
<path d="M159.008 135.385H216.056C217.868 135.385 219.648 134.921 221.218 134.04C222.787 133.159 224.09 131.892 224.995 130.365C225.901 128.839 226.377 127.108 226.377 125.346C226.376 123.584 225.898 121.853 224.991 120.327L186.679 55.7944C185.774 54.2686 184.471 53.0015 182.902 52.1205C181.333 51.2395 179.553 50.7757 177.742 50.7757C175.93 50.7757 174.15 51.2395 172.581 52.1205C171.013 53.0015 169.71 54.2686 168.804 55.7944L159.008 72.3061L139.855 40.0181C138.949 38.4923 137.646 37.2254 136.076 36.3445C134.507 35.4637 132.727 35 130.915 35C129.103 35 127.323 35.4637 125.754 36.3445C124.185 37.2254 122.881 38.4923 121.975 40.0181L74.3007 120.327C73.3938 121.853 72.9159 123.584 72.9151 125.346C72.9143 127.108 73.3906 128.839 74.2962 130.365C75.2019 131.892 76.5048 133.159 78.0739 134.04C79.6431 134.921 81.4232 135.385 83.2352 135.385H119.045C133.234 135.385 143.697 129.324 150.897 117.5L168.376 88.061L177.739 72.3061L205.838 119.63H168.376L159.008 135.385ZM118.461 119.614L93.4706 119.608L130.932 56.5135L149.624 88.061L137.109 109.147C132.327 116.819 126.896 119.614 118.461 119.614Z" fill="#00DC82"/>
</svg>
