<svg xmlns="http://www.w3.org/2000/svg" data-name="Layer 2" viewBox="0 0 493.06 201.26"><g data-name="Layer 1"><path d="M168 201.26h111c3.54 0 6.93-1.24 10-3s6.23-3.96 8-7 3-6.49 3-10-1.23-6.96-3-10l-75-129c-1.77-3.04-3.93-5.24-7-7s-7.46-3-11-3-6.93 1.24-10 3-5.23 3.96-7 7l-19 33-38-64c-1.77-3.04-3.93-6.24-7-8-3.07-1.75-6.46-2-10-2s-6.93.25-10 2-6.23 4.96-8 8l-93 160c-1.77 3.04-2 6.49-2 10s.23 6.96 2 10 4.93 5.24 8 7 6.46 3 10 3h70c27.74 0 47.93-12.44 62-36l34-59 18-31 55 94h-73zm-79-32H40l73-126 37 63-24.51 42.73c-9.35 15.28-20 20.27-36.49 20.27" style="fill:#00dc82"/><path d="m379.36 44.98-46.33 80.26 43.86 76.02 58.1-100.63L493.06 0H405.3l-25.95 44.98Z" style="fill:#1697f6"/><path d="m318.82 100.63 3.04 5.29 43.34-75.1L383.01 0H260.73l58.1 100.63Z" style="fill:#aeddff"/><path d="M405.31 0c21.96 72.26-28.41 201.26-28.41 201.26l-43.86-76.02z" style="fill:#1867c0"/><path d="M383.01 0c-92.52 0-61.14 105.92-61.14 105.92z" style="fill:#7bc6ff"/></g></svg>
