<svg width="496" height="183" viewBox="0 0 496 183" fill="transparent" xmlns="http://www.w3.org/2000/svg">
<rect width="496" height="183" fill="transparent"/>
<path d="M470.558 77.2H463.813L473.256 59V69.4H480L470.558 87.6V77.2Z" fill="#F7D94B"/>
<path d="M54.5098 83V81.4979L63.97 68.5646V68.4261H54.9146V66.6364H66.4096V68.2024L57.1199 81.0717V81.2102H66.7505V83H54.5098ZM77.0763 83.3409C75.5494 83.3409 74.2283 82.9858 73.1133 82.2756C71.9982 81.5582 71.1353 80.5675 70.5245 79.3033C69.9208 78.032 69.619 76.5689 69.619 74.9141C69.619 73.2663 69.9208 71.8033 70.5245 70.5249C71.1353 69.2393 71.9769 68.2344 73.0494 67.5099C74.1289 66.7784 75.3754 66.4126 76.7887 66.4126C77.6765 66.4126 78.5323 66.576 79.3562 66.9027C80.18 67.2223 80.9187 67.7159 81.5721 68.3835C82.2326 69.044 82.7546 69.8786 83.1381 70.8871C83.5217 71.8885 83.7134 73.0746 83.7134 74.4453V75.3828H70.9293V73.7102H81.7745C81.7745 72.6591 81.5614 71.7145 81.1353 70.8764C80.7163 70.0312 80.1303 69.3636 79.3775 68.8736C78.6317 68.3835 77.7688 68.1385 76.7887 68.1385C75.7518 68.1385 74.8391 68.4155 74.0508 68.9695C73.2624 69.5234 72.6445 70.255 72.1971 71.1641C71.7567 72.0732 71.533 73.0675 71.5259 74.147V75.1484C71.5259 76.4482 71.7496 77.5845 72.1971 78.5575C72.6516 79.5234 73.2944 80.2727 74.1254 80.8054C74.9563 81.3381 75.94 81.6044 77.0763 81.6044C77.8505 81.6044 78.5288 81.4837 79.1112 81.2422C79.7006 81.0007 80.1942 80.6776 80.592 80.2727C80.9968 79.8608 81.3022 79.4098 81.5082 78.9197L83.3086 79.5057C83.06 80.1946 82.6516 80.8303 82.0835 81.4126C81.5224 81.995 80.8192 82.4638 79.9741 82.8189C79.136 83.1669 78.1701 83.3409 77.0763 83.3409ZM87.8922 83V66.6364H89.7353V69.1506H89.8738C90.2005 68.3267 90.7686 67.6626 91.5783 67.1584C92.3951 66.647 93.3184 66.3913 94.3482 66.3913C94.5044 66.3913 94.6784 66.3949 94.8702 66.402C95.062 66.4091 95.2218 66.4162 95.3496 66.4233V68.3516C95.2644 68.3374 95.1152 68.3161 94.9022 68.2876C94.6891 68.2592 94.4583 68.245 94.2097 68.245C93.3574 68.245 92.5975 68.4261 91.9299 68.7884C91.2694 69.1435 90.7473 69.6371 90.3638 70.2692C89.9803 70.9013 89.7885 71.6222 89.7885 72.4318V83H87.8922ZM104.448 83.3409C103.034 83.3409 101.784 82.9822 100.698 82.2649C99.6181 81.5476 98.7729 80.5568 98.1621 79.2926C97.5513 78.0213 97.2459 76.5547 97.2459 74.8928C97.2459 73.2166 97.5513 71.7429 98.1621 70.4716C98.7729 69.1932 99.6181 68.1989 100.698 67.4886C101.784 66.7713 103.034 66.4126 104.448 66.4126C105.861 66.4126 107.107 66.7713 108.187 67.4886C109.267 68.206 110.112 69.2003 110.722 70.4716C111.34 71.7429 111.649 73.2166 111.649 74.8928C111.649 76.5547 111.344 78.0213 110.733 79.2926C110.122 80.5568 109.274 81.5476 108.187 82.2649C107.107 82.9822 105.861 83.3409 104.448 83.3409ZM104.448 81.6044C105.584 81.6044 106.546 81.299 107.335 80.6882C108.123 80.0774 108.72 79.2642 109.124 78.2486C109.536 77.233 109.742 76.1143 109.742 74.8928C109.742 73.6712 109.536 72.549 109.124 71.5263C108.72 70.5036 108.123 69.6832 107.335 69.0653C106.546 68.4474 105.584 68.1385 104.448 68.1385C103.318 68.1385 102.356 68.4474 101.561 69.0653C100.772 69.6832 100.172 70.5036 99.7601 71.5263C99.3553 72.549 99.1529 73.6712 99.1529 74.8928C99.1529 76.1143 99.3553 77.233 99.7601 78.2486C100.172 79.2642 100.772 80.0774 101.561 80.6882C102.349 81.299 103.311 81.6044 104.448 81.6044ZM34.9288 117.341C33.4657 117.341 32.1909 116.975 31.1042 116.244C30.0247 115.512 29.1866 114.511 28.59 113.239C27.9934 111.968 27.6951 110.519 27.6951 108.893C27.6951 107.252 27.997 105.793 28.6007 104.514C29.2115 103.236 30.0566 102.234 31.1362 101.51C32.2157 100.778 33.4693 100.413 34.8968 100.413C35.9906 100.413 36.9814 100.626 37.8691 101.052C38.7569 101.471 39.4885 102.064 40.0637 102.831C40.6461 103.591 41.0119 104.479 41.161 105.494H39.2434C39.0446 104.571 38.5652 103.783 37.8052 103.129C37.0524 102.469 36.0936 102.138 34.9288 102.138C33.8848 102.138 32.9615 102.423 32.1589 102.991C31.3564 103.552 30.7278 104.337 30.2733 105.345C29.8258 106.347 29.6021 107.508 29.6021 108.829C29.6021 110.157 29.8223 111.332 30.2626 112.355C30.7029 113.371 31.3208 114.166 32.1163 114.741C32.9189 115.317 33.8564 115.604 34.9288 115.604C35.6532 115.604 36.3137 115.469 36.9103 115.2C37.514 114.923 38.0183 114.532 38.4231 114.028C38.835 113.523 39.112 112.923 39.2541 112.227H41.1717C41.0297 113.214 40.6781 114.095 40.117 114.869C39.563 115.636 38.8422 116.24 37.9544 116.68C37.0737 117.121 36.0652 117.341 34.9288 117.341ZM51.5961 117.341C50.1827 117.341 48.9327 116.982 47.8461 116.265C46.7665 115.548 45.9213 114.557 45.3105 113.293C44.6998 112.021 44.3944 110.555 44.3944 108.893C44.3944 107.217 44.6998 105.743 45.3105 104.472C45.9213 103.193 46.7665 102.199 47.8461 101.489C48.9327 100.771 50.1827 100.413 51.5961 100.413C53.0094 100.413 54.2559 100.771 55.3354 101.489C56.415 102.206 57.2601 103.2 57.8709 104.472C58.4888 105.743 58.7978 107.217 58.7978 108.893C58.7978 110.555 58.4924 112.021 57.8816 113.293C57.2708 114.557 56.4221 115.548 55.3354 116.265C54.2559 116.982 53.0094 117.341 51.5961 117.341ZM51.5961 115.604C52.7324 115.604 53.6948 115.299 54.4831 114.688C55.2715 114.077 55.8681 113.264 56.2729 112.249C56.6848 111.233 56.8908 110.114 56.8908 108.893C56.8908 107.671 56.6848 106.549 56.2729 105.526C55.8681 104.504 55.2715 103.683 54.4831 103.065C53.6948 102.447 52.7324 102.138 51.5961 102.138C50.4668 102.138 49.5044 102.447 48.709 103.065C47.9206 103.683 47.3205 104.504 46.9086 105.526C46.5037 106.549 46.3013 107.671 46.3013 108.893C46.3013 110.114 46.5037 111.233 46.9086 112.249C47.3205 113.264 47.9206 114.077 48.709 114.688C49.4973 115.299 50.4597 115.604 51.5961 115.604ZM64.8569 106.773V117H62.9606V100.636H64.8036V103.204H64.9741C65.3576 102.366 65.9542 101.695 66.7638 101.19C67.5806 100.679 68.5891 100.423 69.7894 100.423C70.8903 100.423 71.8562 100.654 72.6871 101.116C73.5252 101.57 74.1751 102.241 74.6367 103.129C75.1055 104.017 75.3398 105.107 75.3398 106.4V117H73.4435V106.517C73.4435 105.175 73.0671 104.113 72.3143 103.332C71.5685 102.55 70.5671 102.16 69.31 102.16C68.4506 102.16 67.6871 102.344 67.0195 102.714C66.3519 103.083 65.8228 103.616 65.4322 104.312C65.0487 105.001 64.8569 105.821 64.8569 106.773ZM87.0666 100.636V102.288H79.0233V100.636H87.0666ZM81.5375 117V98.2393C81.5375 97.3587 81.7399 96.6165 82.1447 96.0128C82.5566 95.4091 83.0929 94.951 83.7534 94.6385C84.4139 94.326 85.1135 94.1697 85.8521 94.1697C86.3493 94.1697 86.7612 94.2124 87.0879 94.2976C87.4217 94.3757 87.6845 94.4538 87.8762 94.532L87.3223 96.1939C87.1802 96.1513 87.0062 96.1016 86.8002 96.0447C86.5943 95.9879 86.3351 95.9595 86.0226 95.9595C85.1987 95.9595 84.563 96.1903 84.1156 96.652C83.6681 97.1136 83.4444 97.7741 83.4444 98.6335L83.4338 117H81.5375ZM90.8725 117V100.636H92.7795V117H90.8725ZM91.842 97.8239C91.4513 97.8239 91.1175 97.6925 90.8406 97.4297C90.5636 97.1598 90.4251 96.8366 90.4251 96.4602C90.4251 96.0838 90.5636 95.7642 90.8406 95.5014C91.1175 95.2315 91.4513 95.0966 91.842 95.0966C92.2326 95.0966 92.5664 95.2315 92.8434 95.5014C93.1204 95.7642 93.2589 96.0838 93.2589 96.4602C93.2589 96.8366 93.1204 97.1598 92.8434 97.4297C92.5664 97.6925 92.2326 97.8239 91.842 97.8239ZM104.037 123.477C102.922 123.477 101.946 123.332 101.108 123.04C100.27 122.756 99.563 122.366 98.9877 121.869C98.4125 121.371 97.965 120.814 97.6454 120.196L99.2008 119.173C99.4352 119.585 99.7477 119.99 100.138 120.388C100.536 120.786 101.051 121.116 101.683 121.379C102.322 121.641 103.107 121.773 104.037 121.773C105.486 121.773 106.655 121.411 107.542 120.686C108.437 119.962 108.885 118.836 108.885 117.309V113.623H108.714C108.494 114.12 108.178 114.617 107.766 115.114C107.354 115.604 106.814 116.013 106.147 116.339C105.486 116.666 104.666 116.83 103.686 116.83C102.379 116.83 101.218 116.506 100.202 115.86C99.1937 115.214 98.3983 114.29 97.8159 113.09C97.2406 111.883 96.9529 110.445 96.9529 108.776C96.9529 107.121 97.2335 105.665 97.7946 104.408C98.3627 103.151 99.1547 102.17 100.17 101.467C101.186 100.764 102.368 100.413 103.718 100.413C104.719 100.413 105.55 100.59 106.211 100.945C106.871 101.293 107.4 101.727 107.798 102.245C108.203 102.763 108.519 103.268 108.746 103.758H108.938V100.636H110.792V117.426C110.792 118.811 110.497 119.951 109.907 120.846C109.318 121.741 108.515 122.401 107.5 122.827C106.484 123.261 105.33 123.477 104.037 123.477ZM103.91 115.093C104.961 115.093 105.859 114.841 106.605 114.337C107.351 113.825 107.922 113.094 108.32 112.142C108.718 111.19 108.917 110.058 108.917 108.744C108.917 107.465 108.721 106.332 108.331 105.345C107.94 104.351 107.372 103.57 106.626 103.001C105.888 102.426 104.982 102.138 103.91 102.138C102.816 102.138 101.893 102.433 101.14 103.023C100.387 103.612 99.8187 104.408 99.4352 105.409C99.0517 106.403 98.8599 107.515 98.8599 108.744C98.8599 109.994 99.0552 111.098 99.4458 112.057C99.8365 113.009 100.408 113.754 101.161 114.294C101.914 114.827 102.83 115.093 103.91 115.093Z" fill="#888888"/>
<path d="M336.504 83V66.6364H338.347V69.1506H338.517C338.844 68.3054 339.387 67.6413 340.147 67.1584C340.914 66.6683 341.834 66.4233 342.906 66.4233C344.036 66.4233 344.962 66.6896 345.687 67.2223C346.418 67.7479 346.965 68.4723 347.327 69.3956H347.466C347.835 68.4865 348.435 67.7656 349.266 67.233C350.104 66.6932 351.12 66.4233 352.313 66.4233C353.833 66.4233 355.033 66.9027 355.914 67.8615C356.795 68.8132 357.235 70.2053 357.235 72.0376V83H355.339V72.0376C355.339 70.745 355.009 69.7756 354.348 69.1293C353.688 68.483 352.817 68.1598 351.738 68.1598C350.488 68.1598 349.526 68.5433 348.851 69.3104C348.176 70.0774 347.839 71.0504 347.839 72.2294V83H345.9V71.8672C345.9 70.7592 345.591 69.8643 344.973 69.1825C344.355 68.5007 343.485 68.1598 342.363 68.1598C341.61 68.1598 340.932 68.3445 340.328 68.7138C339.732 69.0831 339.259 69.598 338.911 70.2585C338.57 70.9119 338.4 71.6648 338.4 72.517V83H336.504ZM368.616 83.3409C367.202 83.3409 365.952 82.9822 364.866 82.2649C363.786 81.5476 362.941 80.5568 362.33 79.2926C361.719 78.0213 361.414 76.5547 361.414 74.8928C361.414 73.2166 361.719 71.7429 362.33 70.4716C362.941 69.1932 363.786 68.1989 364.866 67.4886C365.952 66.7713 367.202 66.4126 368.616 66.4126C370.029 66.4126 371.275 66.7713 372.355 67.4886C373.434 68.206 374.28 69.2003 374.89 70.4716C375.508 71.7429 375.817 73.2166 375.817 74.8928C375.817 76.5547 375.512 78.0213 374.901 79.2926C374.29 80.5568 373.442 81.5476 372.355 82.2649C371.275 82.9822 370.029 83.3409 368.616 83.3409ZM368.616 81.6044C369.752 81.6044 370.714 81.299 371.503 80.6882C372.291 80.0774 372.888 79.2642 373.292 78.2486C373.704 77.233 373.91 76.1143 373.91 74.8928C373.91 73.6712 373.704 72.549 373.292 71.5263C372.888 70.5036 372.291 69.6832 371.503 69.0653C370.714 68.4474 369.752 68.1385 368.616 68.1385C367.486 68.1385 366.524 68.4474 365.729 69.0653C364.94 69.6832 364.34 70.5036 363.928 71.5263C363.523 72.549 363.321 73.6712 363.321 74.8928C363.321 76.1143 363.523 77.233 363.928 78.2486C364.34 79.2642 364.94 80.0774 365.729 80.6882C366.517 81.299 367.479 81.6044 368.616 81.6044ZM385.871 83.3409C384.529 83.3409 383.354 82.9858 382.345 82.2756C381.337 81.5653 380.548 80.5746 379.98 79.3033C379.419 78.032 379.138 76.5511 379.138 74.8608C379.138 73.1776 379.419 71.7038 379.98 70.4396C380.548 69.1683 381.34 68.1811 382.356 67.478C383.371 66.7678 384.554 66.4126 385.903 66.4126C386.898 66.4126 387.725 66.5902 388.386 66.9453C389.046 67.2933 389.575 67.7266 389.973 68.245C390.371 68.7635 390.68 69.2678 390.9 69.7578H391.07V61.1818H392.977V83H391.124V79.9638H390.9C390.68 80.4609 390.367 80.9723 389.962 81.4979C389.558 82.0163 389.021 82.4531 388.354 82.8082C387.693 83.1634 386.866 83.3409 385.871 83.3409ZM386.095 81.6044C387.153 81.6044 388.055 81.3168 388.801 80.7415C389.547 80.1591 390.115 79.3601 390.506 78.3445C390.903 77.3217 391.102 76.1499 391.102 74.8288C391.102 73.522 390.907 72.3679 390.516 71.3665C390.126 70.358 389.558 69.5696 388.812 69.0014C388.066 68.4261 387.161 68.1385 386.095 68.1385C385.001 68.1385 384.078 68.4368 383.325 69.0334C382.58 69.6229 382.011 70.4219 381.621 71.4304C381.237 72.4389 381.045 73.5717 381.045 74.8288C381.045 76.1001 381.241 77.2472 381.631 78.2699C382.022 79.2926 382.59 80.1058 383.336 80.7095C384.089 81.3061 385.009 81.6044 386.095 81.6044ZM408.776 76.7464V66.6364H410.673V83H408.776V80.2834H408.627C408.244 81.1214 407.636 81.821 406.805 82.3821C405.974 82.9361 404.959 83.2131 403.759 83.2131C402.714 83.2131 401.788 82.9858 400.978 82.5312C400.168 82.0696 399.533 81.3949 399.071 80.5071C398.609 79.6193 398.379 78.5291 398.379 77.2365V66.6364H400.275V77.1193C400.275 78.3977 400.651 79.4276 401.404 80.2088C402.157 80.983 403.123 81.37 404.302 81.37C405.04 81.37 405.751 81.1925 406.433 80.8374C407.114 80.4822 407.675 79.9638 408.116 79.282C408.556 78.593 408.776 77.7479 408.776 76.7464ZM417.589 61.1818V83H415.693V61.1818H417.589ZM429.223 83.3409C427.696 83.3409 426.375 82.9858 425.26 82.2756C424.145 81.5582 423.282 80.5675 422.671 79.3033C422.067 78.032 421.765 76.5689 421.765 74.9141C421.765 73.2663 422.067 71.8033 422.671 70.5249C423.282 69.2393 424.123 68.2344 425.196 67.5099C426.275 66.7784 427.522 66.4126 428.935 66.4126C429.823 66.4126 430.679 66.576 431.503 66.9027C432.327 67.2223 433.065 67.7159 433.719 68.3835C434.379 69.044 434.901 69.8786 435.285 70.8871C435.668 71.8885 435.86 73.0746 435.86 74.4453V75.3828H423.076V73.7102H433.921C433.921 72.6591 433.708 71.7145 433.282 70.8764C432.863 70.0312 432.277 69.3636 431.524 68.8736C430.778 68.3835 429.915 68.1385 428.935 68.1385C427.898 68.1385 426.986 68.4155 426.197 68.9695C425.409 69.5234 424.791 70.255 424.344 71.1641C423.903 72.0732 423.68 73.0675 423.672 74.147V75.1484C423.672 76.4482 423.896 77.5845 424.344 78.5575C424.798 79.5234 425.441 80.2727 426.272 80.8054C427.103 81.3381 428.086 81.6044 429.223 81.6044C429.997 81.6044 430.675 81.4837 431.258 81.2422C431.847 81.0007 432.341 80.6776 432.738 80.2727C433.143 79.8608 433.449 79.4098 433.655 78.9197L435.455 79.5057C435.206 80.1946 434.798 80.8303 434.23 81.4126C433.669 81.995 432.966 82.4638 432.121 82.8189C431.282 83.1669 430.317 83.3409 429.223 83.3409ZM343.237 100.636V102.288H335.193V100.636H343.237ZM337.707 117V98.2393C337.707 97.3587 337.91 96.6165 338.315 96.0128C338.727 95.4091 339.263 94.951 339.923 94.6385C340.584 94.326 341.283 94.1697 342.022 94.1697C342.519 94.1697 342.931 94.2124 343.258 94.2976C343.592 94.3757 343.854 94.4538 344.046 94.532L343.492 96.1939C343.35 96.1513 343.176 96.1016 342.97 96.0447C342.764 95.9879 342.505 95.9595 342.192 95.9595C341.369 95.9595 340.733 96.1903 340.286 96.652C339.838 97.1136 339.614 97.7741 339.614 98.6335L339.604 117H337.707ZM352.707 117.341C351.294 117.341 350.044 116.982 348.957 116.265C347.878 115.548 347.033 114.557 346.422 113.293C345.811 112.021 345.506 110.555 345.506 108.893C345.506 107.217 345.811 105.743 346.422 104.472C347.033 103.193 347.878 102.199 348.957 101.489C350.044 100.771 351.294 100.413 352.707 100.413C354.121 100.413 355.367 100.771 356.447 101.489C357.526 102.206 358.371 103.2 358.982 104.472C359.6 105.743 359.909 107.217 359.909 108.893C359.909 110.555 359.604 112.021 358.993 113.293C358.382 114.557 357.533 115.548 356.447 116.265C355.367 116.982 354.121 117.341 352.707 117.341ZM352.707 115.604C353.844 115.604 354.806 115.299 355.594 114.688C356.383 114.077 356.979 113.264 357.384 112.249C357.796 111.233 358.002 110.114 358.002 108.893C358.002 107.671 357.796 106.549 357.384 105.526C356.979 104.504 356.383 103.683 355.594 103.065C354.806 102.447 353.844 102.138 352.707 102.138C351.578 102.138 350.616 102.447 349.82 103.065C349.032 103.683 348.432 104.504 348.02 105.526C347.615 106.549 347.413 107.671 347.413 108.893C347.413 110.114 347.615 111.233 348.02 112.249C348.432 113.264 349.032 114.077 349.82 114.688C350.609 115.299 351.571 115.604 352.707 115.604ZM364.072 117V100.636H365.915V103.151H366.053C366.38 102.327 366.948 101.663 367.758 101.158C368.575 100.647 369.498 100.391 370.528 100.391C370.684 100.391 370.858 100.395 371.05 100.402C371.242 100.409 371.401 100.416 371.529 100.423V102.352C371.444 102.337 371.295 102.316 371.082 102.288C370.869 102.259 370.638 102.245 370.389 102.245C369.537 102.245 368.777 102.426 368.11 102.788C367.449 103.143 366.927 103.637 366.544 104.269C366.16 104.901 365.968 105.622 365.968 106.432V117H364.072ZM383.629 95.1818L390.447 114.411H390.639L397.457 95.1818H399.545L391.608 117H389.478L381.541 95.1818H383.629ZM413.288 110.746V100.636H415.184V117H413.288V114.283H413.139C412.755 115.121 412.148 115.821 411.317 116.382C410.486 116.936 409.471 117.213 408.27 117.213C407.226 117.213 406.299 116.986 405.49 116.531C404.68 116.07 404.044 115.395 403.583 114.507C403.121 113.619 402.89 112.529 402.89 111.237V100.636H404.787V111.119C404.787 112.398 405.163 113.428 405.916 114.209C406.669 114.983 407.635 115.37 408.814 115.37C409.552 115.37 410.262 115.192 410.944 114.837C411.626 114.482 412.187 113.964 412.627 113.282C413.068 112.593 413.288 111.748 413.288 110.746ZM426.82 117.341C425.294 117.341 423.972 116.986 422.857 116.276C421.742 115.558 420.879 114.567 420.269 113.303C419.665 112.032 419.363 110.569 419.363 108.914C419.363 107.266 419.665 105.803 420.269 104.525C420.879 103.239 421.721 102.234 422.794 101.51C423.873 100.778 425.119 100.413 426.533 100.413C427.421 100.413 428.276 100.576 429.1 100.903C429.924 101.222 430.663 101.716 431.316 102.384C431.977 103.044 432.499 103.879 432.882 104.887C433.266 105.888 433.458 107.075 433.458 108.445V109.383H420.673V107.71H431.519C431.519 106.659 431.306 105.714 430.879 104.876C430.46 104.031 429.874 103.364 429.122 102.874C428.376 102.384 427.513 102.138 426.533 102.138C425.496 102.138 424.583 102.415 423.795 102.969C423.007 103.523 422.389 104.255 421.941 105.164C421.501 106.073 421.277 107.067 421.27 108.147V109.148C421.27 110.448 421.494 111.585 421.941 112.558C422.396 113.523 423.039 114.273 423.869 114.805C424.7 115.338 425.684 115.604 426.82 115.604C427.595 115.604 428.273 115.484 428.855 115.242C429.445 115.001 429.938 114.678 430.336 114.273C430.741 113.861 431.046 113.41 431.252 112.92L433.053 113.506C432.804 114.195 432.396 114.83 431.828 115.413C431.267 115.995 430.563 116.464 429.718 116.819C428.88 117.167 427.914 117.341 426.82 117.341ZM444.082 100.636V102.288H436.273V100.636H444.082ZM438.712 96.7159H440.619V112.728C440.619 113.41 440.737 113.946 440.971 114.337C441.205 114.72 441.511 114.994 441.887 115.157C442.263 115.313 442.665 115.391 443.091 115.391C443.339 115.391 443.553 115.377 443.73 115.349C443.908 115.313 444.064 115.278 444.199 115.242L444.604 116.957C444.419 117.028 444.192 117.092 443.922 117.149C443.652 117.213 443.318 117.245 442.92 117.245C442.224 117.245 441.553 117.092 440.907 116.787C440.268 116.482 439.742 116.027 439.33 115.423C438.918 114.82 438.712 114.07 438.712 113.175V96.7159ZM448.41 117V100.636H450.317V117H448.41ZM449.379 97.8239C448.988 97.8239 448.655 97.6925 448.378 97.4297C448.101 97.1598 447.962 96.8366 447.962 96.4602C447.962 96.0838 448.101 95.7642 448.378 95.5014C448.655 95.2315 448.988 95.0966 449.379 95.0966C449.77 95.0966 450.104 95.2315 450.381 95.5014C450.657 95.7642 450.796 96.0838 450.796 96.4602C450.796 96.8366 450.657 97.1598 450.381 97.4297C450.104 97.6925 449.77 97.8239 449.379 97.8239ZM462.065 100.636V102.288H454.021V100.636H462.065ZM456.536 117V98.2393C456.536 97.3587 456.738 96.6165 457.143 96.0128C457.555 95.4091 458.091 94.951 458.751 94.6385C459.412 94.326 460.112 94.1697 460.85 94.1697C461.347 94.1697 461.759 94.2124 462.086 94.2976C462.42 94.3757 462.683 94.4538 462.874 94.532L462.32 96.1939C462.178 96.1513 462.004 96.1016 461.798 96.0447C461.592 95.9879 461.333 95.9595 461.021 95.9595C460.197 95.9595 459.561 96.1903 459.114 96.652C458.666 97.1136 458.442 97.7741 458.442 98.6335L458.432 117H456.536ZM467.17 123.136C466.794 123.136 466.442 123.101 466.116 123.03C465.789 122.959 465.53 122.881 465.338 122.795L465.849 121.123C466.496 121.322 467.071 121.393 467.575 121.336C468.079 121.286 468.527 121.059 468.917 120.654C469.308 120.256 469.656 119.646 469.961 118.822L470.558 117.16L464.539 100.636H466.595L471.453 114.496H471.602L476.46 100.636H478.516L471.591 119.589C471.3 120.377 470.942 121.034 470.515 121.56C470.089 122.092 469.596 122.487 469.035 122.742C468.481 123.005 467.859 123.136 467.17 123.136Z" fill="#888888"/>
  <g clip-path="url(#clip0_1264_7350)">
    <path d="M26.8295 31.4227H44.4182C44.9769 31.4228 45.5257 31.2802 46.0095 31.0092C46.4933 30.7382 46.895 30.3485 47.1742 29.8791C47.4534 29.4098 47.6003 28.8774 47.6001 28.3355C47.5998 27.7936 47.4525 27.2614 47.1728 26.7922L35.3608 6.94689C35.0816 6.47766 34.6799 6.08799 34.1962 5.81706C33.7125 5.54614 33.1638 5.4035 32.6053 5.4035C32.0467 5.4035 31.498 5.54614 31.0143 5.81706C30.5306 6.08799 30.129 6.47766 29.8498 6.94689L26.8295 12.0246L20.9243 2.09529C20.6449 1.62609 20.2431 1.23648 19.7593 0.965601C19.2754 0.694725 18.7266 0.552124 18.168 0.552124C17.6094 0.552124 17.0606 0.694725 16.5767 0.965601C16.0929 1.23648 15.6911 1.62609 15.4117 2.09529L0.712988 26.7922C0.433357 27.2614 0.28601 27.7936 0.285767 28.3355C0.285524 28.8774 0.432393 29.4098 0.711603 29.8791C0.990813 30.3485 1.39252 30.7382 1.87631 31.0092C2.36011 31.2802 2.90894 31.4228 3.4676 31.4227H14.5083C18.8828 31.4227 22.1088 29.5589 24.3286 25.9227L29.7178 16.8696L32.6044 12.0246L41.2677 26.5778H29.7178L26.8295 31.4227ZM14.3283 26.5728L6.62332 26.5711L18.1731 7.16803L23.9361 16.8696L20.0775 23.3539C18.6034 25.7132 16.9287 26.5728 14.3283 26.5728Z" fill="#00DC82"/>
    <path d="M60.65 31.1321V19.5774C60.65 16.2709 60.3057 12.9644 60.3057 12.9644C60.3057 12.9644 61.614 15.9802 63.2665 18.8144L70.3243 31.1321H75.8673V5.69727H70.6686V17.2519C70.6686 20.5585 71.0129 23.9013 71.0129 23.9013C71.0129 23.9013 69.7046 20.8491 68.0865 18.015L60.9942 5.69727H55.4857V31.1321H60.65Z" fill="white"/>
    <path d="M92.2457 12.819V22.8476C92.2457 25.1731 90.7653 26.9172 88.6652 26.9172C86.7028 26.9172 85.3256 25.3184 85.3256 23.1019V12.819H80.5401V24.2283C80.5401 28.4069 83.0878 31.4228 86.9782 31.4228C89.3538 31.4228 91.2817 30.3327 92.2457 28.5886V31.1321H97.0657V12.819H92.2457Z" fill="white"/>
    <path d="M111.082 21.6122L116.901 12.819H111.633L108.466 17.6516L105.298 12.819H100.065L105.884 21.5759L99.6177 31.1321H104.748L108.5 25.5001L112.218 31.1321H117.314L111.082 21.6122Z" fill="white"/>
    <path d="M122.281 12.819H118.941V17.0339H122.281V24.4827C122.281 28.7339 124.863 31.1321 128.857 31.1321H131.714V26.8808H129.511C127.962 26.8808 127.066 26.0451 127.066 24.2647V17.0339H131.714V12.819H127.066V7.40503H122.281V12.819Z" fill="white"/>
  </g>
<defs>
<clipPath id="clip0_1264_7350">
<rect width="194" height="47" fill="white" transform="translate(126 62)"/>
</clipPath>
</defs>
</svg>
