<svg width="496" height="183" viewBox="0 0 496 183" fill="none" xmlns="http://www.w3.org/2000/svg">
<path d="M467.558 77.2H460.813L470.256 59V69.4H477L467.558 87.6V77.2Z" fill="#F7D94B"/>
<path d="M51.5098 83V81.4979L60.97 68.5646V68.4261H51.9146V66.6364H63.4096V68.2024L54.1199 81.0717V81.2102H63.7505V83H51.5098ZM74.0763 83.3409C72.5494 83.3409 71.2283 82.9858 70.1133 82.2756C68.9982 81.5582 68.1353 80.5675 67.5245 79.3033C66.9208 78.032 66.619 76.5689 66.619 74.9141C66.619 73.2663 66.9208 71.8033 67.5245 70.5249C68.1353 69.2393 68.9769 68.2344 70.0494 67.5099C71.1289 66.7784 72.3754 66.4126 73.7887 66.4126C74.6765 66.4126 75.5323 66.576 76.3562 66.9027C77.18 67.2223 77.9187 67.7159 78.5721 68.3835C79.2326 69.044 79.7546 69.8786 80.1381 70.8871C80.5217 71.8885 80.7134 73.0746 80.7134 74.4453V75.3828H67.9293V73.7102H78.7745C78.7745 72.6591 78.5614 71.7145 78.1353 70.8764C77.7163 70.0312 77.1303 69.3636 76.3775 68.8736C75.6317 68.3835 74.7688 68.1385 73.7887 68.1385C72.7518 68.1385 71.8391 68.4155 71.0508 68.9695C70.2624 69.5234 69.6445 70.255 69.1971 71.1641C68.7567 72.0732 68.533 73.0675 68.5259 74.147V75.1484C68.5259 76.4482 68.7496 77.5845 69.1971 78.5575C69.6516 79.5234 70.2944 80.2727 71.1254 80.8054C71.9563 81.3381 72.94 81.6044 74.0763 81.6044C74.8505 81.6044 75.5288 81.4837 76.1112 81.2422C76.7006 81.0007 77.1942 80.6776 77.592 80.2727C77.9968 79.8608 78.3022 79.4098 78.5082 78.9197L80.3086 79.5057C80.06 80.1946 79.6516 80.8303 79.0835 81.4126C78.5224 81.995 77.8192 82.4638 76.9741 82.8189C76.136 83.1669 75.1701 83.3409 74.0763 83.3409ZM84.8922 83V66.6364H86.7353V69.1506H86.8738C87.2005 68.3267 87.7686 67.6626 88.5783 67.1584C89.3951 66.647 90.3184 66.3913 91.3482 66.3913C91.5044 66.3913 91.6784 66.3949 91.8702 66.402C92.062 66.4091 92.2218 66.4162 92.3496 66.4233V68.3516C92.2644 68.3374 92.1152 68.3161 91.9022 68.2876C91.6891 68.2592 91.4583 68.245 91.2097 68.245C90.3574 68.245 89.5975 68.4261 88.9299 68.7884C88.2694 69.1435 87.7473 69.6371 87.3638 70.2692C86.9803 70.9013 86.7885 71.6222 86.7885 72.4318V83H84.8922ZM101.448 83.3409C100.034 83.3409 98.7843 82.9822 97.6976 82.2649C96.6181 81.5476 95.7729 80.5568 95.1621 79.2926C94.5513 78.0213 94.2459 76.5547 94.2459 74.8928C94.2459 73.2166 94.5513 71.7429 95.1621 70.4716C95.7729 69.1932 96.6181 68.1989 97.6976 67.4886C98.7843 66.7713 100.034 66.4126 101.448 66.4126C102.861 66.4126 104.107 66.7713 105.187 67.4886C106.267 68.206 107.112 69.2003 107.722 70.4716C108.34 71.7429 108.649 73.2166 108.649 74.8928C108.649 76.5547 108.344 78.0213 107.733 79.2926C107.122 80.5568 106.274 81.5476 105.187 82.2649C104.107 82.9822 102.861 83.3409 101.448 83.3409ZM101.448 81.6044C102.584 81.6044 103.546 81.299 104.335 80.6882C105.123 80.0774 105.72 79.2642 106.124 78.2486C106.536 77.233 106.742 76.1143 106.742 74.8928C106.742 73.6712 106.536 72.549 106.124 71.5263C105.72 70.5036 105.123 69.6832 104.335 69.0653C103.546 68.4474 102.584 68.1385 101.448 68.1385C100.318 68.1385 99.356 68.4474 98.5605 69.0653C97.7722 69.6832 97.1721 70.5036 96.7601 71.5263C96.3553 72.549 96.1529 73.6712 96.1529 74.8928C96.1529 76.1143 96.3553 77.233 96.7601 78.2486C97.1721 79.2642 97.7722 80.0774 98.5605 80.6882C99.3489 81.299 100.311 81.6044 101.448 81.6044ZM31.9288 117.341C30.4657 117.341 29.1909 116.975 28.1042 116.244C27.0247 115.512 26.1866 114.511 25.59 113.239C24.9934 111.968 24.6951 110.519 24.6951 108.893C24.6951 107.252 24.997 105.793 25.6007 104.514C26.2115 103.236 27.0566 102.234 28.1362 101.51C29.2157 100.778 30.4693 100.413 31.8968 100.413C32.9906 100.413 33.9814 100.626 34.8691 101.052C35.7569 101.471 36.4885 102.064 37.0637 102.831C37.6461 103.591 38.0119 104.479 38.161 105.494H36.2434C36.0446 104.571 35.5652 103.783 34.8052 103.129C34.0524 102.469 33.0936 102.138 31.9288 102.138C30.8848 102.138 29.9615 102.423 29.1589 102.991C28.3564 103.552 27.7278 104.337 27.2733 105.345C26.8258 106.347 26.6021 107.508 26.6021 108.829C26.6021 110.157 26.8223 111.332 27.2626 112.355C27.7029 113.371 28.3208 114.166 29.1163 114.741C29.9189 115.317 30.8564 115.604 31.9288 115.604C32.6532 115.604 33.3137 115.469 33.9103 115.2C34.514 114.923 35.0183 114.532 35.4231 114.028C35.835 113.523 36.112 112.923 36.2541 112.227H38.1717C38.0297 113.214 37.6781 114.095 37.117 114.869C36.563 115.636 35.8422 116.24 34.9544 116.68C34.0737 117.121 33.0652 117.341 31.9288 117.341ZM48.5961 117.341C47.1827 117.341 45.9327 116.982 44.8461 116.265C43.7665 115.548 42.9213 114.557 42.3105 113.293C41.6998 112.021 41.3944 110.555 41.3944 108.893C41.3944 107.217 41.6998 105.743 42.3105 104.472C42.9213 103.193 43.7665 102.199 44.8461 101.489C45.9327 100.771 47.1827 100.413 48.5961 100.413C50.0094 100.413 51.2559 100.771 52.3354 101.489C53.415 102.206 54.2601 103.2 54.8709 104.472C55.4888 105.743 55.7978 107.217 55.7978 108.893C55.7978 110.555 55.4924 112.021 54.8816 113.293C54.2708 114.557 53.4221 115.548 52.3354 116.265C51.2559 116.982 50.0094 117.341 48.5961 117.341ZM48.5961 115.604C49.7324 115.604 50.6948 115.299 51.4831 114.688C52.2715 114.077 52.8681 113.264 53.2729 112.249C53.6848 111.233 53.8908 110.114 53.8908 108.893C53.8908 107.671 53.6848 106.549 53.2729 105.526C52.8681 104.504 52.2715 103.683 51.4831 103.065C50.6948 102.447 49.7324 102.138 48.5961 102.138C47.4668 102.138 46.5044 102.447 45.709 103.065C44.9206 103.683 44.3205 104.504 43.9086 105.526C43.5037 106.549 43.3013 107.671 43.3013 108.893C43.3013 110.114 43.5037 111.233 43.9086 112.249C44.3205 113.264 44.9206 114.077 45.709 114.688C46.4973 115.299 47.4597 115.604 48.5961 115.604ZM61.8569 106.773V117H59.9606V100.636H61.8036V103.204H61.9741C62.3576 102.366 62.9542 101.695 63.7638 101.19C64.5806 100.679 65.5891 100.423 66.7894 100.423C67.8903 100.423 68.8562 100.654 69.6871 101.116C70.5252 101.57 71.1751 102.241 71.6367 103.129C72.1055 104.017 72.3398 105.107 72.3398 106.4V117H70.4435V106.517C70.4435 105.175 70.0671 104.113 69.3143 103.332C68.5685 102.55 67.5671 102.16 66.31 102.16C65.4506 102.16 64.6871 102.344 64.0195 102.714C63.3519 103.083 62.8228 103.616 62.4322 104.312C62.0487 105.001 61.8569 105.821 61.8569 106.773ZM84.0666 100.636V102.288H76.0233V100.636H84.0666ZM78.5375 117V98.2393C78.5375 97.3587 78.7399 96.6165 79.1447 96.0128C79.5566 95.4091 80.0929 94.951 80.7534 94.6385C81.4139 94.326 82.1135 94.1697 82.8521 94.1697C83.3493 94.1697 83.7612 94.2124 84.0879 94.2976C84.4217 94.3757 84.6845 94.4538 84.8762 94.532L84.3223 96.1939C84.1802 96.1513 84.0062 96.1016 83.8002 96.0447C83.5943 95.9879 83.3351 95.9595 83.0226 95.9595C82.1987 95.9595 81.563 96.1903 81.1156 96.652C80.6681 97.1136 80.4444 97.7741 80.4444 98.6335L80.4338 117H78.5375ZM87.8725 117V100.636H89.7795V117H87.8725ZM88.842 97.8239C88.4513 97.8239 88.1175 97.6925 87.8406 97.4297C87.5636 97.1598 87.4251 96.8366 87.4251 96.4602C87.4251 96.0838 87.5636 95.7642 87.8406 95.5014C88.1175 95.2315 88.4513 95.0966 88.842 95.0966C89.2326 95.0966 89.5664 95.2315 89.8434 95.5014C90.1204 95.7642 90.2589 96.0838 90.2589 96.4602C90.2589 96.8366 90.1204 97.1598 89.8434 97.4297C89.5664 97.6925 89.2326 97.8239 88.842 97.8239ZM101.037 123.477C99.9224 123.477 98.9458 123.332 98.1078 123.04C97.2697 122.756 96.563 122.366 95.9877 121.869C95.4125 121.371 94.965 120.814 94.6454 120.196L96.2008 119.173C96.4352 119.585 96.7477 119.99 97.1383 120.388C97.536 120.786 98.051 121.116 98.6831 121.379C99.3223 121.641 100.107 121.773 101.037 121.773C102.486 121.773 103.655 121.411 104.542 120.686C105.437 119.962 105.885 118.836 105.885 117.309V113.623H105.714C105.494 114.12 105.178 114.617 104.766 115.114C104.354 115.604 103.814 116.013 103.147 116.339C102.486 116.666 101.666 116.83 100.686 116.83C99.3791 116.83 98.2179 116.506 97.2022 115.86C96.1937 115.214 95.3983 114.29 94.8159 113.09C94.2406 111.883 93.9529 110.445 93.9529 108.776C93.9529 107.121 94.2335 105.665 94.7946 104.408C95.3627 103.151 96.1547 102.17 97.1703 101.467C98.1859 100.764 99.3684 100.413 100.718 100.413C101.719 100.413 102.55 100.59 103.211 100.945C103.871 101.293 104.4 101.727 104.798 102.245C105.203 102.763 105.519 103.268 105.746 103.758H105.938V100.636H107.792V117.426C107.792 118.811 107.497 119.951 106.907 120.846C106.318 121.741 105.515 122.401 104.5 122.827C103.484 123.261 102.33 123.477 101.037 123.477ZM100.91 115.093C101.961 115.093 102.859 114.841 103.605 114.337C104.351 113.825 104.922 113.094 105.32 112.142C105.718 111.19 105.917 110.058 105.917 108.744C105.917 107.465 105.721 106.332 105.331 105.345C104.94 104.351 104.372 103.57 103.626 103.001C102.888 102.426 101.982 102.138 100.91 102.138C99.8159 102.138 98.8926 102.433 98.1397 103.023C97.3869 103.612 96.8187 104.408 96.4352 105.409C96.0517 106.403 95.8599 107.515 95.8599 108.744C95.8599 109.994 96.0552 111.098 96.4458 112.057C96.8365 113.009 97.4082 113.754 98.161 114.294C98.9139 114.827 99.8301 115.093 100.91 115.093Z" fill="#888888"/>
<path d="M336.504 83V66.6364H338.347V69.1506H338.517C338.844 68.3054 339.387 67.6413 340.147 67.1584C340.914 66.6683 341.834 66.4233 342.906 66.4233C344.036 66.4233 344.962 66.6896 345.687 67.2223C346.418 67.7479 346.965 68.4723 347.327 69.3956H347.466C347.835 68.4865 348.435 67.7656 349.266 67.233C350.104 66.6932 351.12 66.4233 352.313 66.4233C353.833 66.4233 355.033 66.9027 355.914 67.8615C356.795 68.8132 357.235 70.2053 357.235 72.0376V83H355.339V72.0376C355.339 70.745 355.009 69.7756 354.348 69.1293C353.688 68.483 352.817 68.1598 351.738 68.1598C350.488 68.1598 349.526 68.5433 348.851 69.3104C348.176 70.0774 347.839 71.0504 347.839 72.2294V83H345.9V71.8672C345.9 70.7592 345.591 69.8643 344.973 69.1825C344.355 68.5007 343.485 68.1598 342.363 68.1598C341.61 68.1598 340.932 68.3445 340.328 68.7138C339.732 69.0831 339.259 69.598 338.911 70.2585C338.57 70.9119 338.4 71.6648 338.4 72.517V83H336.504ZM368.616 83.3409C367.202 83.3409 365.952 82.9822 364.866 82.2649C363.786 81.5476 362.941 80.5568 362.33 79.2926C361.719 78.0213 361.414 76.5547 361.414 74.8928C361.414 73.2166 361.719 71.7429 362.33 70.4716C362.941 69.1932 363.786 68.1989 364.866 67.4886C365.952 66.7713 367.202 66.4126 368.616 66.4126C370.029 66.4126 371.275 66.7713 372.355 67.4886C373.434 68.206 374.28 69.2003 374.89 70.4716C375.508 71.7429 375.817 73.2166 375.817 74.8928C375.817 76.5547 375.512 78.0213 374.901 79.2926C374.29 80.5568 373.442 81.5476 372.355 82.2649C371.275 82.9822 370.029 83.3409 368.616 83.3409ZM368.616 81.6044C369.752 81.6044 370.714 81.299 371.503 80.6882C372.291 80.0774 372.888 79.2642 373.292 78.2486C373.704 77.233 373.91 76.1143 373.91 74.8928C373.91 73.6712 373.704 72.549 373.292 71.5263C372.888 70.5036 372.291 69.6832 371.503 69.0653C370.714 68.4474 369.752 68.1385 368.616 68.1385C367.486 68.1385 366.524 68.4474 365.729 69.0653C364.94 69.6832 364.34 70.5036 363.928 71.5263C363.523 72.549 363.321 73.6712 363.321 74.8928C363.321 76.1143 363.523 77.233 363.928 78.2486C364.34 79.2642 364.94 80.0774 365.729 80.6882C366.517 81.299 367.479 81.6044 368.616 81.6044ZM385.871 83.3409C384.529 83.3409 383.354 82.9858 382.345 82.2756C381.337 81.5653 380.548 80.5746 379.98 79.3033C379.419 78.032 379.138 76.5511 379.138 74.8608C379.138 73.1776 379.419 71.7038 379.98 70.4396C380.548 69.1683 381.34 68.1811 382.356 67.478C383.371 66.7678 384.554 66.4126 385.903 66.4126C386.898 66.4126 387.725 66.5902 388.386 66.9453C389.046 67.2933 389.575 67.7266 389.973 68.245C390.371 68.7635 390.68 69.2678 390.9 69.7578H391.07V61.1818H392.977V83H391.124V79.9638H390.9C390.68 80.4609 390.367 80.9723 389.962 81.4979C389.558 82.0163 389.021 82.4531 388.354 82.8082C387.693 83.1634 386.866 83.3409 385.871 83.3409ZM386.095 81.6044C387.153 81.6044 388.055 81.3168 388.801 80.7415C389.547 80.1591 390.115 79.3601 390.506 78.3445C390.903 77.3217 391.102 76.1499 391.102 74.8288C391.102 73.522 390.907 72.3679 390.516 71.3665C390.126 70.358 389.558 69.5696 388.812 69.0014C388.066 68.4261 387.161 68.1385 386.095 68.1385C385.001 68.1385 384.078 68.4368 383.325 69.0334C382.58 69.6229 382.011 70.4219 381.621 71.4304C381.237 72.4389 381.045 73.5717 381.045 74.8288C381.045 76.1001 381.241 77.2472 381.631 78.2699C382.022 79.2926 382.59 80.1058 383.336 80.7095C384.089 81.3061 385.009 81.6044 386.095 81.6044ZM408.776 76.7464V66.6364H410.673V83H408.776V80.2834H408.627C408.244 81.1214 407.636 81.821 406.805 82.3821C405.974 82.9361 404.959 83.2131 403.759 83.2131C402.714 83.2131 401.788 82.9858 400.978 82.5312C400.168 82.0696 399.533 81.3949 399.071 80.5071C398.609 79.6193 398.379 78.5291 398.379 77.2365V66.6364H400.275V77.1193C400.275 78.3977 400.651 79.4276 401.404 80.2088C402.157 80.983 403.123 81.37 404.302 81.37C405.04 81.37 405.751 81.1925 406.433 80.8374C407.114 80.4822 407.675 79.9638 408.116 79.282C408.556 78.593 408.776 77.7479 408.776 76.7464ZM417.589 61.1818V83H415.693V61.1818H417.589ZM429.223 83.3409C427.696 83.3409 426.375 82.9858 425.26 82.2756C424.145 81.5582 423.282 80.5675 422.671 79.3033C422.067 78.032 421.765 76.5689 421.765 74.9141C421.765 73.2663 422.067 71.8033 422.671 70.5249C423.282 69.2393 424.123 68.2344 425.196 67.5099C426.275 66.7784 427.522 66.4126 428.935 66.4126C429.823 66.4126 430.679 66.576 431.503 66.9027C432.327 67.2223 433.065 67.7159 433.719 68.3835C434.379 69.044 434.901 69.8786 435.285 70.8871C435.668 71.8885 435.86 73.0746 435.86 74.4453V75.3828H423.076V73.7102H433.921C433.921 72.6591 433.708 71.7145 433.282 70.8764C432.863 70.0312 432.277 69.3636 431.524 68.8736C430.778 68.3835 429.915 68.1385 428.935 68.1385C427.898 68.1385 426.986 68.4155 426.197 68.9695C425.409 69.5234 424.791 70.255 424.344 71.1641C423.903 72.0732 423.68 73.0675 423.672 74.147V75.1484C423.672 76.4482 423.896 77.5845 424.344 78.5575C424.798 79.5234 425.441 80.2727 426.272 80.8054C427.103 81.3381 428.086 81.6044 429.223 81.6044C429.997 81.6044 430.675 81.4837 431.258 81.2422C431.847 81.0007 432.341 80.6776 432.738 80.2727C433.143 79.8608 433.449 79.4098 433.655 78.9197L435.455 79.5057C435.206 80.1946 434.798 80.8303 434.23 81.4126C433.669 81.995 432.966 82.4638 432.121 82.8189C431.282 83.1669 430.317 83.3409 429.223 83.3409ZM343.237 100.636V102.288H335.193V100.636H343.237ZM337.707 117V98.2393C337.707 97.3587 337.91 96.6165 338.315 96.0128C338.727 95.4091 339.263 94.951 339.923 94.6385C340.584 94.326 341.283 94.1697 342.022 94.1697C342.519 94.1697 342.931 94.2124 343.258 94.2976C343.592 94.3757 343.854 94.4538 344.046 94.532L343.492 96.1939C343.35 96.1513 343.176 96.1016 342.97 96.0447C342.764 95.9879 342.505 95.9595 342.192 95.9595C341.369 95.9595 340.733 96.1903 340.286 96.652C339.838 97.1136 339.614 97.7741 339.614 98.6335L339.604 117H337.707ZM352.707 117.341C351.294 117.341 350.044 116.982 348.957 116.265C347.878 115.548 347.033 114.557 346.422 113.293C345.811 112.021 345.506 110.555 345.506 108.893C345.506 107.217 345.811 105.743 346.422 104.472C347.033 103.193 347.878 102.199 348.957 101.489C350.044 100.771 351.294 100.413 352.707 100.413C354.121 100.413 355.367 100.771 356.447 101.489C357.526 102.206 358.371 103.2 358.982 104.472C359.6 105.743 359.909 107.217 359.909 108.893C359.909 110.555 359.604 112.021 358.993 113.293C358.382 114.557 357.533 115.548 356.447 116.265C355.367 116.982 354.121 117.341 352.707 117.341ZM352.707 115.604C353.844 115.604 354.806 115.299 355.594 114.688C356.383 114.077 356.979 113.264 357.384 112.249C357.796 111.233 358.002 110.114 358.002 108.893C358.002 107.671 357.796 106.549 357.384 105.526C356.979 104.504 356.383 103.683 355.594 103.065C354.806 102.447 353.844 102.138 352.707 102.138C351.578 102.138 350.616 102.447 349.82 103.065C349.032 103.683 348.432 104.504 348.02 105.526C347.615 106.549 347.413 107.671 347.413 108.893C347.413 110.114 347.615 111.233 348.02 112.249C348.432 113.264 349.032 114.077 349.82 114.688C350.609 115.299 351.571 115.604 352.707 115.604ZM364.072 117V100.636H365.915V103.151H366.053C366.38 102.327 366.948 101.663 367.758 101.158C368.575 100.647 369.498 100.391 370.528 100.391C370.684 100.391 370.858 100.395 371.05 100.402C371.242 100.409 371.401 100.416 371.529 100.423V102.352C371.444 102.337 371.295 102.316 371.082 102.288C370.869 102.259 370.638 102.245 370.389 102.245C369.537 102.245 368.777 102.426 368.11 102.788C367.449 103.143 366.927 103.637 366.544 104.269C366.16 104.901 365.968 105.622 365.968 106.432V117H364.072ZM383.629 95.1818L390.447 114.411H390.639L397.457 95.1818H399.545L391.608 117H389.478L381.541 95.1818H383.629ZM413.288 110.746V100.636H415.184V117H413.288V114.283H413.139C412.755 115.121 412.148 115.821 411.317 116.382C410.486 116.936 409.471 117.213 408.27 117.213C407.226 117.213 406.299 116.986 405.49 116.531C404.68 116.07 404.044 115.395 403.583 114.507C403.121 113.619 402.89 112.529 402.89 111.237V100.636H404.787V111.119C404.787 112.398 405.163 113.428 405.916 114.209C406.669 114.983 407.635 115.37 408.814 115.37C409.552 115.37 410.262 115.192 410.944 114.837C411.626 114.482 412.187 113.964 412.627 113.282C413.068 112.593 413.288 111.748 413.288 110.746ZM426.82 117.341C425.294 117.341 423.972 116.986 422.857 116.276C421.742 115.558 420.879 114.567 420.269 113.303C419.665 112.032 419.363 110.569 419.363 108.914C419.363 107.266 419.665 105.803 420.269 104.525C420.879 103.239 421.721 102.234 422.794 101.51C423.873 100.778 425.119 100.413 426.533 100.413C427.421 100.413 428.276 100.576 429.1 100.903C429.924 101.222 430.663 101.716 431.316 102.384C431.977 103.044 432.499 103.879 432.882 104.887C433.266 105.888 433.458 107.075 433.458 108.445V109.383H420.673V107.71H431.519C431.519 106.659 431.306 105.714 430.879 104.876C430.46 104.031 429.874 103.364 429.122 102.874C428.376 102.384 427.513 102.138 426.533 102.138C425.496 102.138 424.583 102.415 423.795 102.969C423.007 103.523 422.389 104.255 421.941 105.164C421.501 106.073 421.277 107.067 421.27 108.147V109.148C421.27 110.448 421.494 111.585 421.941 112.558C422.396 113.523 423.039 114.273 423.869 114.805C424.7 115.338 425.684 115.604 426.82 115.604C427.595 115.604 428.273 115.484 428.855 115.242C429.445 115.001 429.938 114.678 430.336 114.273C430.741 113.861 431.046 113.41 431.252 112.92L433.053 113.506C432.804 114.195 432.396 114.83 431.828 115.413C431.267 115.995 430.563 116.464 429.718 116.819C428.88 117.167 427.914 117.341 426.82 117.341ZM444.082 100.636V102.288H436.273V100.636H444.082ZM438.712 96.7159H440.619V112.728C440.619 113.41 440.737 113.946 440.971 114.337C441.205 114.72 441.511 114.994 441.887 115.157C442.263 115.313 442.665 115.391 443.091 115.391C443.339 115.391 443.553 115.377 443.73 115.349C443.908 115.313 444.064 115.278 444.199 115.242L444.604 116.957C444.419 117.028 444.192 117.092 443.922 117.149C443.652 117.213 443.318 117.245 442.92 117.245C442.224 117.245 441.553 117.092 440.907 116.787C440.268 116.482 439.742 116.027 439.33 115.423C438.918 114.82 438.712 114.07 438.712 113.175V96.7159ZM448.41 117V100.636H450.317V117H448.41ZM449.379 97.8239C448.988 97.8239 448.655 97.6925 448.378 97.4297C448.101 97.1598 447.962 96.8366 447.962 96.4602C447.962 96.0838 448.101 95.7642 448.378 95.5014C448.655 95.2315 448.988 95.0966 449.379 95.0966C449.77 95.0966 450.104 95.2315 450.381 95.5014C450.657 95.7642 450.796 96.0838 450.796 96.4602C450.796 96.8366 450.657 97.1598 450.381 97.4297C450.104 97.6925 449.77 97.8239 449.379 97.8239ZM462.065 100.636V102.288H454.021V100.636H462.065ZM456.536 117V98.2393C456.536 97.3587 456.738 96.6165 457.143 96.0128C457.555 95.4091 458.091 94.951 458.751 94.6385C459.412 94.326 460.112 94.1697 460.85 94.1697C461.347 94.1697 461.759 94.2124 462.086 94.2976C462.42 94.3757 462.683 94.4538 462.874 94.532L462.32 96.1939C462.178 96.1513 462.004 96.1016 461.798 96.0447C461.592 95.9879 461.333 95.9595 461.021 95.9595C460.197 95.9595 459.561 96.1903 459.114 96.652C458.666 97.1136 458.442 97.7741 458.442 98.6335L458.432 117H456.536ZM467.17 123.136C466.794 123.136 466.442 123.101 466.116 123.03C465.789 122.959 465.53 122.881 465.338 122.795L465.849 121.123C466.496 121.322 467.071 121.393 467.575 121.336C468.079 121.286 468.527 121.059 468.917 120.654C469.308 120.256 469.656 119.646 469.961 118.822L470.558 117.16L464.539 100.636H466.595L471.453 114.496H471.602L476.46 100.636H478.516L471.591 119.589C471.3 120.377 470.942 121.034 470.515 121.56C470.089 122.092 469.596 122.487 469.035 122.742C468.481 123.005 467.859 123.136 467.17 123.136Z" fill="#888888"/>
<g clip-path="url(#clip0_304_2)">
<mask id="mask0_304_2" style="mask-type:luminance" maskUnits="userSpaceOnUse" x="126" y="62" width="194" height="47">
<path d="M319.581 62H126.42V109H319.581V62Z" fill="white"/>
</mask>
<g mask="url(#mask0_304_2)">
<path d="M165.431 108.152H191.281C192.102 108.152 192.909 107.943 193.62 107.545C194.331 107.147 194.921 106.574 195.332 105.885C195.742 105.196 195.958 104.414 195.958 103.618C195.957 102.822 195.741 102.04 195.33 101.351L177.97 72.2032C177.559 71.514 176.969 70.9417 176.258 70.5438C175.547 70.1459 174.741 69.9364 173.92 69.9364C173.099 69.9364 172.293 70.1459 171.582 70.5438C170.871 70.9417 170.281 71.514 169.87 72.2032L165.431 79.6611L156.752 65.0774C156.342 64.3883 155.751 63.8161 155.04 63.4182C154.329 63.0204 153.522 62.8109 152.701 62.8109C151.88 62.8109 151.074 63.0204 150.363 63.4182C149.652 63.8161 149.061 64.3883 148.651 65.0774L127.048 101.351C126.637 102.04 126.42 102.822 126.42 103.618C126.42 104.414 126.635 105.196 127.046 105.885C127.456 106.574 128.047 107.147 128.758 107.545C129.469 107.943 130.275 108.152 131.096 108.152H147.323C153.752 108.152 158.493 105.415 161.756 100.074L169.676 86.7772L173.919 79.6611L186.651 101.036H169.676L165.431 108.152ZM147.058 101.029L135.734 101.026L152.709 72.528L161.179 86.7772L155.508 96.301C153.341 99.7662 150.88 101.029 147.058 101.029Z" fill="#00DC82"/>
<path d="M215.137 107.725V90.7542C215.137 85.8978 214.631 81.0414 214.631 81.0414C214.631 81.0414 216.554 85.4709 218.983 89.6336L229.355 107.725H237.502V70.3678H229.861V87.3387C229.861 92.1952 230.367 97.105 230.367 97.105C230.367 97.105 228.445 92.622 226.067 88.4595L215.643 70.3678H207.547V107.725H215.137Z" fill="white"/>
<path d="M261.573 80.8279V95.5574C261.573 98.973 259.397 101.535 256.311 101.535C253.427 101.535 251.403 99.1864 251.403 95.9309V80.8279H244.37V97.5853C244.37 103.723 248.114 108.152 253.832 108.152C257.323 108.152 260.156 106.551 261.573 103.989V107.725H268.657V80.8279H261.573Z" fill="white"/>
<path d="M289.257 93.7429L297.809 80.8279H290.067L285.412 87.9258L280.756 80.8279H273.065L281.617 93.6896L272.408 107.725H279.948L285.462 99.4532L290.926 107.725H298.416L289.257 93.7429Z" fill="white"/>
<path d="M305.716 80.8279H300.807V87.0185H305.716V97.9589C305.716 104.203 309.511 107.725 315.381 107.725H319.58V101.481H316.342C314.065 101.481 312.749 100.254 312.749 97.6387V87.0185H319.58V80.8279H312.749V72.8761H305.716V80.8279Z" fill="white"/>
</g>
</g>
<defs>
<clipPath id="clip0_304_2">
<rect width="194" height="47" fill="white" transform="translate(126 62)"/>
</clipPath>
</defs>
</svg>
